# xmcd CD database file
#
# Track frame offsets:
#	150
#	14840
#	30465
#	44512
#	57920
#	70087
#	83700
#	100535
#	111375
#	126450
#	136945
#	149092
#
# Disc length: 2129 seconds
#
# Revision: 2
# Processed by: cddbd v1.4PL0 Copyright (c) Steve Scherf et al.
# Submitted via: CDex 1.50
#
DISCID=af084f0c
DTITLE=Mahalia Jackson - In My Home Over There
DYEAR=1998
DGENRE=Gospel
TTITLE0=In The Upper Room, Pt 1
TTITLE1=His Eye is On the Sparrow
TTITLE2=Walking to Jerusalem
TTITLE3=Dig a Little Deeper
TTITLE4=Get Away Jordan
TTITLE5=It Is No Secret (What God Can Do)
TTITLE6=There's Not a Friend Like Jesus
TTITLE7=Do You Know Him
TTITLE8=In My Home Over There
TTITLE9=Amazing Grace
TTITLE10=Nobody Knows
TTITLE11=Run All the Way
EXTD=YEAR: 1998
EXTT0=
EXTT1=
EXTT2=
EXTT3=
EXTT4=
EXTT5=
EXTT6=
EXTT7=
EXTT8=
EXTT9=
EXTT10=
EXTT11=
PLAYORDER=
